<svg xmlns="http://www.w3.org/2000/svg" xmlns:xlink="http://www.w3.org/1999/xlink" width="500" zoomAndPan="magnify" viewBox="0 0 375 374.999991" height="500" preserveAspectRatio="xMidYMid meet" version="1.0"><defs><g><g id="id1"/><g id="id2"/></g><clipPath id="id3"><path d="M 301.894531 197.46875 L 350.46875 197.46875 L 350.46875 262.234375 L 301.894531 262.234375 Z M 301.894531 197.46875 " clip-rule="nonzero"/></clipPath></defs><path stroke-linecap="butt" transform="matrix(2.15644, 0, 0, 2.361883, 33.068594, 233.303113)" fill="none" stroke-linejoin="miter" d="M 0.000797097 0.000666426 L 136.660838 0.000666426 " stroke="rgb(100%, 100%, 100%)" stroke-width="1" stroke-opacity="1" stroke-miterlimit="4"/><path stroke-linecap="butt" transform="matrix(2.164622, 0.0214441, -0.0233971, 2.361767, 227.970254, 137.990689)" fill="none" stroke-linejoin="miter" d="M -0.000687665 0.000640922 L 46.380819 -0.000383715 " stroke="rgb(100%, 100%, 100%)" stroke-width="1" stroke-opacity="1" stroke-miterlimit="4"/><path stroke-linecap="butt" transform="matrix(-0.0246, -2.149502, 2.158767, -0.0247061, 328.103743, 234.101265)" fill="none" stroke-linejoin="miter" d="M -0.000147747 0.000797752 L 43.692758 -0.000720874 " stroke="rgb(100%, 100%, 100%)" stroke-width="1" stroke-opacity="1" stroke-miterlimit="4"/><g clip-path="url(#id3)"><path fill="rgb(90.589905%, 66.668701%, 19.60907%)" d="M 326.1875 245.410156 C 323.851562 245.410156 322.199219 243.640625 320.742188 242.082031 C 319.933594 241.214844 319.09375 240.316406 318.398438 240.03125 C 317.636719 239.71875 316.355469 239.761719 315.117188 239.804688 C 313.011719 239.878906 310.625 239.960938 309.039062 238.390625 C 307.453125 236.824219 307.535156 234.464844 307.609375 232.386719 C 307.652344 231.160156 307.695312 229.894531 307.378906 229.144531 C 307.089844 228.453125 306.183594 227.625 305.304688 226.828125 C 303.726562 225.386719 301.933594 223.75 301.933594 221.445312 C 301.933594 219.136719 303.726562 217.503906 305.304688 216.0625 C 306.183594 215.261719 307.089844 214.4375 307.378906 213.746094 C 307.695312 212.992188 307.652344 211.726562 307.609375 210.503906 C 307.535156 208.421875 307.453125 206.0625 309.039062 204.496094 C 310.625 202.929688 313.011719 203.011719 315.117188 203.085938 C 316.355469 203.125 317.636719 203.171875 318.398438 202.859375 C 319.09375 202.570312 319.933594 201.675781 320.742188 200.808594 C 322.199219 199.246094 323.851562 197.476562 326.1875 197.476562 C 328.523438 197.476562 330.175781 199.246094 331.632812 200.808594 C 332.441406 201.675781 333.28125 202.570312 333.976562 202.859375 C 334.738281 203.171875 336.019531 203.125 337.257812 203.085938 C 339.363281 203.007812 341.753906 202.929688 343.335938 204.496094 C 344.921875 206.0625 344.839844 208.421875 344.765625 210.503906 C 344.722656 211.726562 344.679688 212.992188 344.996094 213.746094 C 345.285156 214.4375 346.191406 215.261719 347.070312 216.0625 C 348.648438 217.503906 350.441406 219.136719 350.441406 221.445312 C 350.441406 223.75 348.648438 225.386719 347.070312 226.828125 C 346.191406 227.625 345.285156 228.453125 344.996094 229.144531 C 344.679688 229.894531 344.722656 231.160156 344.765625 232.386719 C 344.839844 234.464844 344.921875 236.824219 343.335938 238.390625 C 341.75 239.957031 339.363281 239.878906 337.257812 239.804688 C 336.023438 239.765625 334.738281 239.71875 333.976562 240.03125 C 333.28125 240.316406 332.441406 241.214844 331.632812 242.082031 C 330.175781 243.640625 328.523438 245.410156 326.1875 245.410156 Z M 318.335938 244.277344 C 317.984375 243.898438 317.429688 243.308594 317.109375 243.039062 C 316.980469 243.027344 316.761719 243.011719 316.402344 243.011719 C 316.023438 243.011719 315.625 243.027344 315.234375 243.039062 C 314.742188 243.058594 314.238281 243.074219 313.730469 243.074219 C 312.324219 243.074219 310.460938 242.933594 308.714844 242.078125 L 302.234375 252.914062 C 301.898438 253.476562 301.9375 254.1875 302.335938 254.707031 C 302.730469 255.230469 303.410156 255.464844 304.050781 255.304688 L 311.816406 253.335938 L 313.8125 261.007812 C 313.976562 261.640625 314.511719 262.117188 315.167969 262.207031 C 315.246094 262.21875 315.320312 262.222656 315.398438 262.222656 C 315.972656 262.222656 316.511719 261.925781 316.808594 261.429688 L 324.558594 248.472656 C 321.691406 247.863281 319.710938 245.753906 318.335938 244.277344 Z M 343.65625 242.078125 C 341.914062 242.933594 340.050781 243.074219 338.644531 243.074219 C 338.136719 243.074219 337.632812 243.058594 337.140625 243.039062 C 336.734375 243.027344 336.34375 243.011719 335.972656 243.011719 C 335.613281 243.011719 335.390625 243.027344 335.261719 243.039062 C 334.941406 243.308594 334.390625 243.898438 334.042969 244.269531 C 332.664062 245.753906 330.683594 247.863281 327.8125 248.472656 L 335.566406 261.429688 C 335.863281 261.925781 336.402344 262.222656 336.976562 262.222656 C 337.050781 262.222656 337.128906 262.21875 337.207031 262.207031 C 337.863281 262.117188 338.398438 261.640625 338.5625 261.007812 L 340.558594 253.335938 L 348.320312 255.304688 C 348.964844 255.46875 349.640625 255.230469 350.039062 254.707031 C 350.4375 254.1875 350.476562 253.476562 350.140625 252.914062 Z M 343.65625 242.078125 " fill-opacity="1" fill-rule="nonzero"/></g><g fill="rgb(100%, 100%, 100%)" fill-opacity="1"><g transform="translate(127.300103, 184.427156)"><g><path d="M 12.507812 0.316406 C 16.386719 0.316406 20.199219 -1.636719 21.679688 -5.042969 C 22.121094 -6.113281 21.109375 -7.121094 20.230469 -6.175781 C 18.402344 -4.253906 16.542969 -3.371094 14.460938 -3.371094 C 9.738281 -3.371094 7.339844 -8.222656 7.339844 -13.265625 C 7.339844 -17.265625 9.453125 -19.882812 12.855469 -19.882812 C 15.03125 -19.882812 16.953125 -18.054688 18.433594 -15.914062 C 19.285156 -14.746094 19.503906 -14.210938 20.324219 -14.273438 C 21.238281 -14.335938 21.425781 -14.933594 21.269531 -16.007812 C 21.046875 -17.960938 20.636719 -19.410156 20.261719 -20.703125 C 19.851562 -22.054688 19.410156 -22.339844 18.84375 -22.339844 C 17.898438 -22.339844 17.769531 -21.773438 16.921875 -21.773438 C 16.320312 -21.773438 15.15625 -22.371094 13.109375 -22.371094 C 6.394531 -22.371094 1.261719 -17.046875 1.261719 -10.683594 C 1.261719 -3.75 6.144531 0.316406 12.507812 0.316406 Z M 12.507812 0.316406 "/></g></g></g><g fill="rgb(100%, 100%, 100%)" fill-opacity="1"><g transform="translate(151.434626, 184.427156)"><g><path d="M 18.210938 -7.625 C 17.613281 -7.78125 17.109375 -7.5 16.574219 -6.460938 C 15.375 -4.066406 14.621094 -2.582031 12.949219 -2.582031 L 11.1875 -2.582031 C 9.265625 -2.582031 8.824219 -3.023438 8.824219 -3.96875 L 8.824219 -9.738281 C 8.824219 -10.902344 9.359375 -11.25 10.523438 -11.28125 C 12.980469 -11.1875 13.234375 -7.6875 15.0625 -8.066406 C 15.785156 -8.222656 16.007812 -8.507812 15.816406 -9.546875 L 14.871094 -14.085938 C 14.808594 -14.496094 14.621094 -14.933594 13.800781 -14.933594 C 12.605469 -14.933594 12.476562 -13.863281 10.554688 -13.832031 C 9.390625 -13.863281 8.824219 -14.210938 8.824219 -15.375 L 8.824219 -18.085938 C 8.824219 -19.0625 9.265625 -19.472656 10.839844 -19.472656 L 12.035156 -19.472656 C 13.957031 -19.472656 15.28125 -18.496094 16.699219 -16.542969 C 17.265625 -15.722656 17.769531 -15.472656 18.402344 -15.691406 C 19.0625 -15.945312 19.15625 -16.605469 18.96875 -17.675781 C 18.714844 -18.90625 18.433594 -19.976562 18.117188 -20.828125 C 17.707031 -21.867188 17.046875 -22.054688 15.15625 -22.054688 L 2.519531 -22.054688 C 1.070312 -22.054688 0.566406 -21.742188 0.566406 -20.921875 C 0.566406 -18.78125 2.835938 -20.292969 2.835938 -15.691406 L 2.835938 -6.363281 C 2.835938 -1.765625 0.566406 -3.277344 0.566406 -1.132812 C 0.566406 -0.316406 1.070312 0 2.519531 0 L 15.816406 0 C 17.675781 0 18.273438 -0.410156 18.558594 -1.542969 C 18.8125 -2.457031 19 -3.875 19.0625 -5.796875 C 19.09375 -6.902344 19.03125 -7.4375 18.210938 -7.625 Z M 18.210938 -7.625 "/></g></g></g><g fill="rgb(100%, 100%, 100%)" fill-opacity="1"><g transform="translate(173.174654, 184.427156)"><g><path d="M 17.046875 -8.824219 C 19.410156 -9.894531 20.511719 -12.164062 20.511719 -14.839844 C 20.511719 -18.683594 17.078125 -22.054688 10.460938 -22.054688 L 2.519531 -22.054688 C 1.070312 -22.054688 0.566406 -21.742188 0.566406 -20.921875 C 0.566406 -18.78125 2.835938 -20.292969 2.835938 -15.691406 L 2.835938 -5.988281 C 2.835938 -2.015625 0.566406 -3.023438 0.566406 -1.132812 C 0.566406 -0.316406 1.070312 0 2.519531 0 L 9.074219 0 C 10.554688 0 10.996094 -0.316406 10.996094 -1.132812 C 10.996094 -3.023438 8.824219 -2.015625 8.824219 -5.988281 L 8.824219 -7.71875 C 8.824219 -8.507812 9.703125 -8.507812 10.429688 -8.382812 C 11.28125 -8.253906 11.785156 -7.972656 12.164062 -7.277344 L 13.550781 -4.789062 C 14.652344 -2.867188 12.949219 -2.488281 12.949219 -1.132812 C 12.949219 -0.316406 13.453125 0 14.460938 0 L 20.355469 0 C 21.898438 0 22.339844 -0.316406 22.339844 -1.132812 C 22.339844 -2.867188 20.890625 -2.332031 19.535156 -4.632812 Z M 10.367188 -10.648438 C 9.136719 -10.871094 8.824219 -11.1875 8.824219 -11.972656 L 8.824219 -18.84375 C 8.824219 -19.503906 8.980469 -19.691406 10.242188 -19.691406 C 12.570312 -19.691406 14.558594 -17.425781 14.558594 -14.398438 C 14.558594 -12.570312 13.644531 -10.082031 10.367188 -10.648438 Z M 10.367188 -10.648438 "/></g></g></g><g fill="rgb(100%, 100%, 100%)" fill-opacity="1"><g transform="translate(197.655744, 184.427156)"><g><path d="M 13.421875 -18.054688 C 13.421875 -18.84375 13.832031 -19.285156 14.496094 -19.285156 C 16.195312 -19.285156 16.953125 -17.992188 18.148438 -15.597656 C 18.464844 -14.933594 18.84375 -14.527344 19.347656 -14.527344 C 20.101562 -14.527344 20.292969 -15.15625 20.261719 -16.257812 C 20.199219 -18.179688 20.007812 -19.597656 19.757812 -20.511719 C 19.472656 -21.648438 18.84375 -22.054688 17.015625 -22.054688 L 3.78125 -22.054688 C 1.953125 -22.054688 1.324219 -21.648438 1.039062 -20.511719 C 0.789062 -19.597656 0.597656 -18.179688 0.535156 -16.257812 C 0.503906 -15.15625 0.691406 -14.527344 1.449219 -14.527344 C 1.953125 -14.527344 2.332031 -14.96875 2.648438 -15.628906 C 3.84375 -17.992188 4.601562 -19.285156 6.300781 -19.285156 C 7.027344 -19.285156 7.40625 -18.84375 7.40625 -18.054688 L 7.40625 -5.988281 C 7.40625 -2.015625 5.167969 -3.023438 5.167969 -1.132812 C 5.167969 -0.316406 5.671875 0 7.089844 0 L 13.675781 0 C 15.15625 0 15.597656 -0.316406 15.597656 -1.132812 C 15.597656 -3.023438 13.421875 -2.015625 13.421875 -5.988281 Z M 13.421875 -18.054688 "/></g></g></g><g fill="rgb(100%, 100%, 100%)" fill-opacity="1"><g transform="translate(220.05742, 184.427156)"><g><path d="M 2.835938 -5.988281 C 2.835938 -2.015625 0.566406 -3.023438 0.566406 -1.132812 C 0.566406 -0.316406 1.070312 0 2.519531 0 L 9.074219 0 C 10.554688 0 10.996094 -0.316406 10.996094 -1.132812 C 10.996094 -3.023438 8.824219 -2.015625 8.824219 -5.988281 L 8.824219 -16.070312 C 8.824219 -20.039062 11.058594 -19.03125 11.058594 -20.921875 C 11.058594 -21.742188 10.554688 -22.054688 9.136719 -22.054688 L 2.582031 -22.054688 C 1.070312 -22.054688 0.628906 -21.742188 0.628906 -20.921875 C 0.628906 -19.03125 2.835938 -20.039062 2.835938 -16.070312 Z M 2.835938 -5.988281 "/></g></g></g><g fill="rgb(100%, 100%, 100%)" fill-opacity="1"><g transform="translate(233.290702, 184.427156)"><g><path d="M 19.15625 -17.675781 C 18.90625 -18.90625 18.621094 -19.976562 18.308594 -20.828125 C 17.898438 -21.867188 17.203125 -22.054688 15.34375 -22.054688 L 2.519531 -22.054688 C 1.070312 -22.054688 0.566406 -21.742188 0.566406 -20.921875 C 0.566406 -18.78125 2.835938 -20.292969 2.835938 -15.691406 L 2.835938 -5.988281 C 2.835938 -2.015625 0.566406 -3.023438 0.566406 -1.132812 C 0.566406 -0.316406 1.070312 0 2.519531 0 L 9.074219 0 C 10.554688 0 10.996094 -0.316406 10.996094 -1.132812 C 10.996094 -3.023438 8.824219 -2.015625 8.824219 -5.988281 L 8.824219 -9.453125 C 8.824219 -10.683594 9.421875 -10.996094 10.683594 -10.996094 L 10.964844 -10.996094 C 13.515625 -11.027344 13.738281 -7.40625 15.597656 -7.78125 C 16.320312 -7.941406 16.542969 -8.222656 16.351562 -9.296875 L 15.40625 -13.800781 C 15.34375 -14.210938 15.15625 -14.652344 14.335938 -14.652344 C 13.109375 -14.652344 13.011719 -13.550781 10.964844 -13.550781 L 10.683594 -13.550781 C 9.421875 -13.550781 8.824219 -13.894531 8.824219 -15.09375 L 8.824219 -18.273438 C 8.824219 -19.03125 9.265625 -19.472656 10.808594 -19.472656 L 12.226562 -19.472656 C 14.148438 -19.472656 15.472656 -18.496094 16.859375 -16.542969 C 17.457031 -15.722656 17.960938 -15.472656 18.589844 -15.691406 C 19.253906 -15.945312 19.347656 -16.605469 19.15625 -17.675781 Z M 19.15625 -17.675781 "/></g></g></g><g fill="rgb(100%, 100%, 100%)" fill-opacity="1"><g transform="translate(254.40061, 184.427156)"><g><path d="M 2.835938 -5.988281 C 2.835938 -2.015625 0.566406 -3.023438 0.566406 -1.132812 C 0.566406 -0.316406 1.070312 0 2.519531 0 L 9.074219 0 C 10.554688 0 10.996094 -0.316406 10.996094 -1.132812 C 10.996094 -3.023438 8.824219 -2.015625 8.824219 -5.988281 L 8.824219 -16.070312 C 8.824219 -20.039062 11.058594 -19.03125 11.058594 -20.921875 C 11.058594 -21.742188 10.554688 -22.054688 9.136719 -22.054688 L 2.582031 -22.054688 C 1.070312 -22.054688 0.628906 -21.742188 0.628906 -20.921875 C 0.628906 -19.03125 2.835938 -20.039062 2.835938 -16.070312 Z M 2.835938 -5.988281 "/></g></g></g><g fill="rgb(100%, 100%, 100%)" fill-opacity="1"><g transform="translate(267.633883, 184.427156)"><g><path d="M 12.507812 0.316406 C 16.386719 0.316406 20.199219 -1.636719 21.679688 -5.042969 C 22.121094 -6.113281 21.109375 -7.121094 20.230469 -6.175781 C 18.402344 -4.253906 16.542969 -3.371094 14.460938 -3.371094 C 9.738281 -3.371094 7.339844 -8.222656 7.339844 -13.265625 C 7.339844 -17.265625 9.453125 -19.882812 12.855469 -19.882812 C 15.03125 -19.882812 16.953125 -18.054688 18.433594 -15.914062 C 19.285156 -14.746094 19.503906 -14.210938 20.324219 -14.273438 C 21.238281 -14.335938 21.425781 -14.933594 21.269531 -16.007812 C 21.046875 -17.960938 20.636719 -19.410156 20.261719 -20.703125 C 19.851562 -22.054688 19.410156 -22.339844 18.84375 -22.339844 C 17.898438 -22.339844 17.769531 -21.773438 16.921875 -21.773438 C 16.320312 -21.773438 15.15625 -22.371094 13.109375 -22.371094 C 6.394531 -22.371094 1.261719 -17.046875 1.261719 -10.683594 C 1.261719 -3.75 6.144531 0.316406 12.507812 0.316406 Z M 12.507812 0.316406 "/></g></g></g><g fill="rgb(100%, 100%, 100%)" fill-opacity="1"><g transform="translate(291.768408, 184.427156)"><g><path d="M 6.394531 -5.074219 C 6.742188 -5.890625 6.742188 -5.890625 10.144531 -5.890625 C 13.675781 -5.890625 13.675781 -5.890625 14.085938 -4.820312 L 14.210938 -4.570312 C 15.1875 -2.046875 12.980469 -2.582031 12.980469 -1.132812 C 12.980469 -0.316406 13.484375 0 14.683594 0 L 21.144531 0 C 22.5625 0 23 -0.316406 23 -1.132812 C 23 -2.550781 21.710938 -1.953125 20.671875 -4.539062 L 14.085938 -21.015625 C 13.800781 -21.773438 13.328125 -22.054688 12.539062 -22.054688 L 8.320312 -22.054688 C 7.6875 -22.054688 7.183594 -21.773438 7.183594 -20.984375 C 7.183594 -19.628906 9.136719 -19.660156 8.222656 -17.394531 L 2.867188 -4.316406 C 2.015625 -2.269531 0.125 -2.363281 0.125 -1.070312 C 0.125 -0.21875 0.851562 -0.03125 2.078125 -0.03125 L 5.167969 -0.03125 C 6.113281 -0.03125 6.902344 -0.1875 6.902344 -1.007812 C 6.902344 -2.363281 5.105469 -1.984375 6.082031 -4.316406 Z M 10.175781 -8.507812 C 7.75 -8.507812 7.75 -8.507812 8.222656 -9.671875 L 10.273438 -14.652344 L 12.320312 -9.359375 C 12.636719 -8.507812 12.636719 -8.507812 10.175781 -8.507812 Z M 10.175781 -8.507812 "/></g></g></g><g fill="rgb(100%, 100%, 100%)" fill-opacity="1"><g transform="translate(131.001939, 216.040331)"><g><path d="M 19.96875 -10.1875 C 19.96875 -6.96875 19.160156 -4.414062 17.546875 -2.53125 C 15.929688 -0.65625 13.707031 0.28125 10.875 0.28125 C 8.050781 0.28125 5.832031 -0.65625 4.21875 -2.53125 C 2.601562 -4.414062 1.796875 -6.976562 1.796875 -10.21875 C 1.796875 -13.457031 2.609375 -16.003906 4.234375 -17.859375 C 5.859375 -19.722656 8.082031 -20.65625 10.90625 -20.65625 C 13.738281 -20.65625 15.957031 -19.71875 17.5625 -17.84375 C 19.164062 -15.976562 19.96875 -13.425781 19.96875 -10.1875 Z M 3.34375 -10.1875 C 3.34375 -7.28125 3.988281 -5.03125 5.28125 -3.4375 C 6.582031 -1.851562 8.445312 -1.0625 10.875 -1.0625 C 13.320312 -1.0625 15.191406 -1.847656 16.484375 -3.421875 C 17.773438 -4.992188 18.421875 -7.25 18.421875 -10.1875 C 18.421875 -13.125 17.773438 -15.375 16.484375 -16.9375 C 15.191406 -18.5 13.332031 -19.28125 10.90625 -19.28125 C 8.488281 -19.28125 6.625 -18.488281 5.3125 -16.90625 C 4 -15.332031 3.34375 -13.09375 3.34375 -10.1875 Z M 3.34375 -10.1875 "/></g></g></g><g fill="rgb(100%, 100%, 100%)" fill-opacity="1"><g transform="translate(152.758044, 216.040331)"><g><path d="M 17.65625 0 L 16.234375 0 L 4.1875 -18.046875 L 4.078125 -18.046875 C 4.179688 -15.898438 4.234375 -14.28125 4.234375 -13.1875 L 4.234375 0 L 2.875 0 L 2.875 -20.328125 L 4.296875 -20.328125 L 16.328125 -2.3125 L 16.40625 -2.3125 C 16.320312 -3.976562 16.28125 -5.5625 16.28125 -7.0625 L 16.28125 -20.328125 L 17.65625 -20.328125 Z M 17.65625 0 "/></g></g></g><g fill="rgb(100%, 100%, 100%)" fill-opacity="1"><g transform="translate(173.290803, 216.040331)"><g><path d="M 2.875 0 L 2.875 -20.328125 L 4.296875 -20.328125 L 4.296875 -1.328125 L 13.984375 -1.328125 L 13.984375 0 Z M 2.875 0 "/></g></g></g><g fill="rgb(100%, 100%, 100%)" fill-opacity="1"><g transform="translate(187.901452, 216.040331)"><g><path d="M 2.875 0 L 2.875 -20.328125 L 4.296875 -20.328125 L 4.296875 0 Z M 2.875 0 "/></g></g></g><g fill="rgb(100%, 100%, 100%)" fill-opacity="1"><g transform="translate(195.074711, 216.040331)"><g><path d="M 17.65625 0 L 16.234375 0 L 4.1875 -18.046875 L 4.078125 -18.046875 C 4.179688 -15.898438 4.234375 -14.28125 4.234375 -13.1875 L 4.234375 0 L 2.875 0 L 2.875 -20.328125 L 4.296875 -20.328125 L 16.328125 -2.3125 L 16.40625 -2.3125 C 16.320312 -3.976562 16.28125 -5.5625 16.28125 -7.0625 L 16.28125 -20.328125 L 17.65625 -20.328125 Z M 17.65625 0 "/></g></g></g><g fill="rgb(100%, 100%, 100%)" fill-opacity="1"><g transform="translate(215.60747, 216.040331)"><g><path d="M 13.984375 0 L 2.875 0 L 2.875 -20.328125 L 13.984375 -20.328125 L 13.984375 -19.03125 L 4.296875 -19.03125 L 4.296875 -11.328125 L 13.453125 -11.328125 L 13.453125 -10.03125 L 4.296875 -10.03125 L 4.296875 -1.3125 L 13.984375 -1.3125 Z M 13.984375 0 "/></g></g></g><g fill="rgb(100%, 100%, 100%)" fill-opacity="1"><g transform="translate(231.306865, 216.040331)"><g/></g></g><g fill="rgb(100%, 100%, 100%)" fill-opacity="1"><g transform="translate(229.041743, 128.301395)"><g><path d="M 7.90625 -2.9375 C 7.90625 -1.988281 7.554688 -1.234375 6.859375 -0.671875 C 6.160156 -0.117188 5.226562 0.15625 4.0625 0.15625 C 2.675781 0.15625 1.609375 0.00390625 0.859375 -0.296875 L 0.859375 -1.09375 C 1.679688 -0.75 2.726562 -0.578125 4 -0.578125 C 4.9375 -0.578125 5.679688 -0.789062 6.234375 -1.21875 C 6.785156 -1.644531 7.0625 -2.207031 7.0625 -2.90625 C 7.0625 -3.34375 6.96875 -3.703125 6.78125 -3.984375 C 6.601562 -4.265625 6.304688 -4.519531 5.890625 -4.75 C 5.484375 -4.988281 4.878906 -5.242188 4.078125 -5.515625 C 2.921875 -5.910156 2.117188 -6.34375 1.671875 -6.8125 C 1.222656 -7.28125 1 -7.898438 1 -8.671875 C 1 -9.523438 1.332031 -10.21875 2 -10.75 C 2.675781 -11.289062 3.535156 -11.5625 4.578125 -11.5625 C 5.648438 -11.5625 6.660156 -11.359375 7.609375 -10.953125 L 7.3125 -10.265625 C 6.363281 -10.660156 5.457031 -10.859375 4.59375 -10.859375 C 3.757812 -10.859375 3.09375 -10.660156 2.59375 -10.265625 C 2.09375 -9.878906 1.84375 -9.351562 1.84375 -8.6875 C 1.84375 -8.257812 1.914062 -7.910156 2.0625 -7.640625 C 2.21875 -7.378906 2.46875 -7.140625 2.8125 -6.921875 C 3.164062 -6.703125 3.765625 -6.441406 4.609375 -6.140625 C 5.503906 -5.835938 6.175781 -5.539062 6.625 -5.25 C 7.070312 -4.957031 7.394531 -4.628906 7.59375 -4.265625 C 7.800781 -3.898438 7.90625 -3.457031 7.90625 -2.9375 Z M 7.90625 -2.9375 "/></g></g></g><g fill="rgb(100%, 100%, 100%)" fill-opacity="1"><g transform="translate(239.248165, 128.301395)"><g><path d="M 1.609375 0 L 1.609375 -11.40625 L 2.40625 -11.40625 L 2.40625 0 Z M 1.609375 0 "/></g></g></g><g fill="rgb(100%, 100%, 100%)" fill-opacity="1"><g transform="translate(244.775129, 128.301395)"><g><path d="M 9.90625 0 L 9.09375 0 L 2.34375 -10.125 L 2.28125 -10.125 C 2.34375 -8.914062 2.375 -8.003906 2.375 -7.390625 L 2.375 0 L 1.609375 0 L 1.609375 -11.40625 L 2.40625 -11.40625 L 9.15625 -1.296875 L 9.203125 -1.296875 C 9.148438 -2.234375 9.125 -3.125 9.125 -3.96875 L 9.125 -11.40625 L 9.90625 -11.40625 Z M 9.90625 0 "/></g></g></g><g fill="rgb(100%, 100%, 100%)" fill-opacity="1"><g transform="translate(257.797034, 128.301395)"><g><path d="M 6.484375 -10.84375 C 5.046875 -10.84375 3.914062 -10.382812 3.09375 -9.46875 C 2.28125 -8.550781 1.875 -7.300781 1.875 -5.71875 C 1.875 -4.09375 2.257812 -2.828125 3.03125 -1.921875 C 3.800781 -1.023438 4.910156 -0.578125 6.359375 -0.578125 C 7.316406 -0.578125 8.191406 -0.695312 8.984375 -0.9375 L 8.984375 -0.234375 C 8.234375 0.0234375 7.296875 0.15625 6.171875 0.15625 C 4.566406 0.15625 3.300781 -0.359375 2.375 -1.390625 C 1.457031 -2.429688 1 -3.878906 1 -5.734375 C 1 -6.890625 1.21875 -7.910156 1.65625 -8.796875 C 2.101562 -9.679688 2.738281 -10.363281 3.5625 -10.84375 C 4.382812 -11.320312 5.34375 -11.5625 6.4375 -11.5625 C 7.539062 -11.5625 8.535156 -11.351562 9.421875 -10.9375 L 9.09375 -10.21875 C 8.269531 -10.632812 7.398438 -10.84375 6.484375 -10.84375 Z M 6.484375 -10.84375 "/></g></g></g><g fill="rgb(100%, 100%, 100%)" fill-opacity="1"><g transform="translate(269.220115, 128.301395)"><g><path d="M 7.84375 0 L 1.609375 0 L 1.609375 -11.40625 L 7.84375 -11.40625 L 7.84375 -10.671875 L 2.40625 -10.671875 L 2.40625 -6.359375 L 7.546875 -6.359375 L 7.546875 -5.625 L 2.40625 -5.625 L 2.40625 -0.734375 L 7.84375 -0.734375 Z M 7.84375 0 "/></g></g></g><g fill="rgb(100%, 100%, 100%)" fill-opacity="1"><g transform="translate(279.535727, 128.301395)"><g/></g></g><g fill="rgb(100%, 100%, 100%)" fill-opacity="1"><g transform="translate(285.187479, 128.301395)"><g><path d="M 8.015625 0 L 0.875 0 L 0.875 -0.6875 L 3.921875 -3.859375 C 4.765625 -4.734375 5.359375 -5.40625 5.703125 -5.875 C 6.046875 -6.34375 6.296875 -6.789062 6.453125 -7.21875 C 6.617188 -7.644531 6.703125 -8.09375 6.703125 -8.5625 C 6.703125 -9.238281 6.476562 -9.789062 6.03125 -10.21875 C 5.582031 -10.644531 5.003906 -10.859375 4.296875 -10.859375 C 3.347656 -10.859375 2.4375 -10.515625 1.5625 -9.828125 L 1.140625 -10.359375 C 2.097656 -11.160156 3.15625 -11.5625 4.3125 -11.5625 C 5.300781 -11.5625 6.082031 -11.296875 6.65625 -10.765625 C 7.226562 -10.234375 7.515625 -9.503906 7.515625 -8.578125 C 7.515625 -7.828125 7.320312 -7.097656 6.9375 -6.390625 C 6.550781 -5.679688 5.851562 -4.8125 4.84375 -3.78125 L 1.921875 -0.78125 L 1.921875 -0.75 L 8.015625 -0.75 Z M 8.015625 0 "/></g></g></g><g fill="rgb(100%, 100%, 100%)" fill-opacity="1"><g transform="translate(295.807263, 128.301395)"><g><path d="M 8.21875 -5.734375 C 8.21875 -3.734375 7.910156 -2.25 7.296875 -1.28125 C 6.691406 -0.320312 5.769531 0.15625 4.53125 0.15625 C 3.34375 0.15625 2.4375 -0.335938 1.8125 -1.328125 C 1.195312 -2.316406 0.890625 -3.785156 0.890625 -5.734375 C 0.890625 -7.710938 1.191406 -9.179688 1.796875 -10.140625 C 2.398438 -11.097656 3.3125 -11.578125 4.53125 -11.578125 C 5.738281 -11.578125 6.65625 -11.082031 7.28125 -10.09375 C 7.90625 -9.101562 8.21875 -7.648438 8.21875 -5.734375 Z M 1.734375 -5.734375 C 1.734375 -3.960938 1.960938 -2.65625 2.421875 -1.8125 C 2.890625 -0.96875 3.59375 -0.546875 4.53125 -0.546875 C 5.519531 -0.546875 6.238281 -0.984375 6.6875 -1.859375 C 7.132812 -2.734375 7.359375 -4.023438 7.359375 -5.734375 C 7.359375 -7.410156 7.132812 -8.6875 6.6875 -9.5625 C 6.238281 -10.4375 5.519531 -10.875 4.53125 -10.875 C 3.550781 -10.875 2.835938 -10.4375 2.390625 -9.5625 C 1.953125 -8.6875 1.734375 -7.410156 1.734375 -5.734375 Z M 1.734375 -5.734375 "/></g></g></g><g fill="rgb(100%, 100%, 100%)" fill-opacity="1"><g transform="translate(306.427048, 128.301395)"><g><path d="M 8.015625 0 L 0.875 0 L 0.875 -0.6875 L 3.921875 -3.859375 C 4.765625 -4.734375 5.359375 -5.40625 5.703125 -5.875 C 6.046875 -6.34375 6.296875 -6.789062 6.453125 -7.21875 C 6.617188 -7.644531 6.703125 -8.09375 6.703125 -8.5625 C 6.703125 -9.238281 6.476562 -9.789062 6.03125 -10.21875 C 5.582031 -10.644531 5.003906 -10.859375 4.296875 -10.859375 C 3.347656 -10.859375 2.4375 -10.515625 1.5625 -9.828125 L 1.140625 -10.359375 C 2.097656 -11.160156 3.15625 -11.5625 4.3125 -11.5625 C 5.300781 -11.5625 6.082031 -11.296875 6.65625 -10.765625 C 7.226562 -10.234375 7.515625 -9.503906 7.515625 -8.578125 C 7.515625 -7.828125 7.320312 -7.097656 6.9375 -6.390625 C 6.550781 -5.679688 5.851562 -4.8125 4.84375 -3.78125 L 1.921875 -0.78125 L 1.921875 -0.75 L 8.015625 -0.75 Z M 8.015625 0 "/></g></g></g><g fill="rgb(100%, 100%, 100%)" fill-opacity="1"><g transform="translate(317.046833, 128.301395)"><g><path d="M 8.015625 0 L 0.875 0 L 0.875 -0.6875 L 3.921875 -3.859375 C 4.765625 -4.734375 5.359375 -5.40625 5.703125 -5.875 C 6.046875 -6.34375 6.296875 -6.789062 6.453125 -7.21875 C 6.617188 -7.644531 6.703125 -8.09375 6.703125 -8.5625 C 6.703125 -9.238281 6.476562 -9.789062 6.03125 -10.21875 C 5.582031 -10.644531 5.003906 -10.859375 4.296875 -10.859375 C 3.347656 -10.859375 2.4375 -10.515625 1.5625 -9.828125 L 1.140625 -10.359375 C 2.097656 -11.160156 3.15625 -11.5625 4.3125 -11.5625 C 5.300781 -11.5625 6.082031 -11.296875 6.65625 -10.765625 C 7.226562 -10.234375 7.515625 -9.503906 7.515625 -8.578125 C 7.515625 -7.828125 7.320312 -7.097656 6.9375 -6.390625 C 6.550781 -5.679688 5.851562 -4.8125 4.84375 -3.78125 L 1.921875 -0.78125 L 1.921875 -0.75 L 8.015625 -0.75 Z M 8.015625 0 "/></g></g></g><g fill="rgb(90.589905%, 66.668701%, 19.60907%)" fill-opacity="1"><g transform="translate(37.402869, 213.659072)"><g><path d="M 14.53125 0 L 28.6875 0 L 28.6875 -40.089844 L 42.027344 -40.089844 L 42.027344 -52.160156 L 1.191406 -52.160156 L 1.191406 -40.089844 L 14.53125 -40.089844 Z M 14.53125 0 "/></g></g></g><g fill="rgb(90.589905%, 66.668701%, 19.60907%)" fill-opacity="1"><g transform="translate(85.828943, 213.659072)"><g><path d="M 2.90625 0 L 38.898438 0 L 38.898438 -12.519531 L 17.0625 -12.519531 L 17.0625 -20.34375 L 30.03125 -20.34375 L 30.03125 -31.816406 L 17.0625 -31.816406 L 17.0625 -39.640625 L 38.449219 -39.640625 L 38.449219 -52.160156 L 2.90625 -52.160156 Z M 2.90625 0 "/></g></g></g></svg>