<svg xmlns="http://www.w3.org/2000/svg" xmlns:xlink="http://www.w3.org/1999/xlink" width="500" zoomAndPan="magnify" viewBox="0 0 375 374.999991" height="500" preserveAspectRatio="xMidYMid meet" version="1.0"><defs><g/><clipPath id="id1"><path d="M 283.488281 223.40625 L 370.082031 223.40625 L 370.082031 338.867188 L 283.488281 338.867188 Z M 283.488281 223.40625 " clip-rule="nonzero"/></clipPath></defs><path stroke-linecap="butt" transform="matrix(5.236141, 0.042132, -0.0422276, 5.248017, 5.587852, 267.133254)" fill="none" stroke-linejoin="miter" d="M -0.000366359 -0.0000812731 L 62.141355 -0.000265623 " stroke="rgb(100%, 100%, 100%)" stroke-width="1" stroke-opacity="1" stroke-miterlimit="4"/><path stroke-linecap="butt" transform="matrix(5.262075, 0.0521293, -0.056877, 5.741325, 88.27814, 38.517635)" fill="none" stroke-linejoin="miter" d="M -0.000147792 0.000331555 L 46.380521 -0.000317975 " stroke="rgb(100%, 100%, 100%)" stroke-width="1" stroke-opacity="1" stroke-miterlimit="4"/><path stroke-linecap="butt" transform="matrix(-0.0598013, -5.225321, 5.247843, -0.0600591, 331.697064, 272.157112)" fill="none" stroke-linejoin="miter" d="M 0.000168727 -0.000331742 L 43.692156 0.000328066 " stroke="rgb(100%, 100%, 100%)" stroke-width="1" stroke-opacity="1" stroke-miterlimit="4"/><g clip-path="url(#id1)"><path fill="rgb(90.589905%, 66.668701%, 19.60907%)" d="M 326.792969 308.886719 C 322.632812 308.886719 319.6875 305.730469 317.085938 302.945312 C 315.644531 301.398438 314.152344 299.800781 312.90625 299.289062 C 311.550781 298.734375 309.265625 298.8125 307.058594 298.886719 C 303.308594 299.019531 299.050781 299.164062 296.222656 296.367188 C 293.394531 293.574219 293.542969 289.367188 293.671875 285.65625 C 293.75 283.472656 293.828125 281.214844 293.265625 279.875 C 292.75 278.644531 291.132812 277.171875 289.570312 275.742188 C 286.753906 273.171875 283.558594 270.261719 283.558594 266.144531 C 283.558594 262.03125 286.753906 259.121094 289.570312 256.550781 C 291.132812 255.125 292.75 253.648438 293.265625 252.417969 C 293.828125 251.078125 293.75 248.820312 293.675781 246.636719 C 293.542969 242.925781 293.398438 238.71875 296.222656 235.925781 C 299.050781 233.128906 303.304688 233.273438 307.058594 233.40625 C 309.269531 233.480469 311.550781 233.558594 312.90625 233.003906 C 314.152344 232.492188 315.644531 230.894531 317.089844 229.347656 C 319.6875 226.5625 322.632812 223.40625 326.792969 223.40625 C 330.957031 223.40625 333.902344 226.5625 336.503906 229.347656 C 337.945312 230.894531 339.4375 232.492188 340.679688 233.003906 C 342.039062 233.558594 344.324219 233.480469 346.53125 233.40625 C 350.285156 233.273438 354.539062 233.132812 357.367188 235.925781 C 360.191406 238.71875 360.042969 242.925781 359.914062 246.636719 C 359.839844 248.820312 359.757812 251.078125 360.320312 252.417969 C 360.835938 253.648438 362.453125 255.121094 364.019531 256.550781 C 366.835938 259.121094 370.027344 262.03125 370.027344 266.144531 C 370.027344 270.261719 366.835938 273.171875 364.019531 275.742188 C 362.453125 277.171875 360.835938 278.644531 360.320312 279.875 C 359.757812 281.214844 359.839844 283.476562 359.914062 285.65625 C 360.042969 289.367188 360.191406 293.574219 357.367188 296.367188 C 354.539062 299.160156 350.285156 299.019531 346.53125 298.886719 C 344.328125 298.816406 342.039062 298.734375 340.679688 299.289062 C 339.4375 299.800781 337.945312 301.398438 336.5 302.945312 C 333.902344 305.730469 330.957031 308.886719 326.792969 308.886719 Z M 312.796875 306.859375 C 312.171875 306.191406 311.183594 305.136719 310.613281 304.65625 C 310.386719 304.632812 309.992188 304.609375 309.355469 304.609375 C 308.675781 304.609375 307.96875 304.632812 307.269531 304.65625 C 306.390625 304.6875 305.492188 304.71875 304.585938 304.71875 C 302.078125 304.71875 298.757812 304.46875 295.652344 302.945312 L 284.09375 322.261719 C 283.492188 323.265625 283.5625 324.53125 284.273438 325.464844 C 284.980469 326.398438 286.191406 326.816406 287.335938 326.527344 L 301.179688 323.015625 L 304.734375 336.699219 C 305.027344 337.828125 305.980469 338.671875 307.148438 338.839844 C 307.289062 338.859375 307.425781 338.867188 307.5625 338.867188 C 308.582031 338.867188 309.542969 338.335938 310.074219 337.449219 L 323.894531 314.34375 C 318.78125 313.257812 315.253906 309.492188 312.796875 306.859375 Z M 357.9375 302.945312 C 354.828125 304.46875 351.507812 304.71875 348.996094 304.71875 C 348.09375 304.71875 347.199219 304.6875 346.324219 304.65625 C 345.59375 304.632812 344.902344 304.609375 344.234375 304.609375 C 343.597656 304.609375 343.203125 304.636719 342.972656 304.65625 C 342.402344 305.136719 341.421875 306.1875 340.800781 306.851562 C 338.335938 309.492188 334.808594 313.257812 329.695312 314.34375 L 343.515625 337.449219 C 344.046875 338.335938 345.003906 338.867188 346.027344 338.867188 C 346.164062 338.867188 346.300781 338.859375 346.4375 338.839844 C 347.609375 338.671875 348.5625 337.828125 348.855469 336.699219 L 352.410156 323.015625 L 366.253906 326.527344 C 367.402344 326.816406 368.605469 326.398438 369.3125 325.464844 C 370.023438 324.53125 370.09375 323.265625 369.492188 322.261719 Z M 357.9375 302.945312 " fill-opacity="1" fill-rule="nonzero"/></g><g fill="rgb(90.589905%, 66.668701%, 19.60907%)" fill-opacity="1"><g transform="translate(78.246095, 223.140896)"><g><path d="M 35.324219 0 L 69.738281 0 L 69.738281 -97.453125 L 102.164062 -97.453125 L 102.164062 -126.800781 L 2.898438 -126.800781 L 2.898438 -97.453125 L 35.324219 -97.453125 Z M 35.324219 0 "/></g></g></g><g fill="rgb(90.589905%, 66.668701%, 19.60907%)" fill-opacity="1"><g transform="translate(195.967194, 223.140896)"><g><path d="M 7.066406 0 L 94.554688 0 L 94.554688 -30.433594 L 41.480469 -30.433594 L 41.480469 -49.453125 L 73 -49.453125 L 73 -77.347656 L 41.480469 -77.347656 L 41.480469 -96.367188 L 93.46875 -96.367188 L 93.46875 -126.800781 L 7.066406 -126.800781 Z M 7.066406 0 "/></g></g></g></svg>